<svg xmlns="http://www.w3.org/2000/svg" xmlns:xlink="http://www.w3.org/1999/xlink" version="1.1" x="0px" y="0px" viewBox="0 0 100 125" enable-background="new 0 0 100 100" xml:space="preserve"><g><circle cx="50" cy="19.9" r="14.9"/><polygon points="36,63.7 28.2,62.3 28.2,59.9 36,61.3  "/><polygon points="46.4,65.6 38.5,64.2 38.5,61.8 46.4,63.2  "/><polygon points="36,67.9 28.2,66.6 28.2,64.2 36,65.5  "/><polygon points="46.4,69.8 38.5,68.4 38.5,66 46.4,67.4  "/><polygon points="46.4,74 38.5,72.6 38.5,70.2 46.4,71.6  "/><polygon points="28.2,68.4 28.2,72.6 28.2,73.6 28.2,75 36,76.4 36,75 36,74 36,69.8  "/><polygon points="46.4,78.2 38.5,76.8 38.5,74.4 46.4,75.8  "/><polygon points="46.4,82.4 38.5,81 38.5,78.6 46.4,80  "/><polygon points="38.5,82.8 38.5,87 38.5,88.7 38.5,89.4 46.4,90.8 46.4,90.1 46.4,88.4 46.4,84.2  "/><polygon points="46.4,95 38.5,93.6 38.5,91.2 46.4,92.6  "/><polygon points="66.8,60.8 64,61.3 53.6,63.2 53.6,74 64,72.2 66.8,71.7 71.8,70.8 71.8,59.9  "/><polygon points="61.5,76.8 53.6,78.2 53.6,75.8 61.5,74.4  "/><polygon points="71.8,75 64,76.4 64,74 71.8,72.6  "/><polygon points="61.5,81 53.6,82.4 53.6,80 61.5,78.6  "/><polygon points="61.5,93.6 53.6,95 53.6,92.6 61.5,91.2  "/><polygon points="61.5,85.2 53.6,86.6 53.6,84.2 61.5,82.8  "/><polygon points="61.5,89.4 53.6,90.8 53.6,88.4 61.5,87  "/><path d="M31.4,92.4l4.6,0.8v-2.4l-2.1-0.4C33.2,91.2,32.4,91.9,31.4,92.4z"/><path d="M35.8,84.7l0.3,0.1v-2.4l-0.5-0.1C35.7,83.1,35.8,83.9,35.8,84.7z"/><path d="M34.9,88.8L36,89v-2.4l-0.4-0.1C35.5,87.3,35.3,88.1,34.9,88.8z"/><path d="M31.1,77.3c1.2,0.5,2.2,1.2,3,2.2c0.2,0.2,0.3,0.5,0.5,0.8l1.4,0.3v-2.4L31.1,77.3z"/><path d="M86.3,82.2c0,0-7-34.7-7.2-35.4c-0.9-3.4-4-5.9-7.6-5.9h-1.4H59h-1.4L50,52.2l-7.6-11.3H41H29.9h-1.4   c-3.6,0-6.7,2.5-7.6,5.9c-0.2,0.6-7.2,35.4-7.2,35.4c0,4.1,3.2,7.5,7.2,7.8l6.5,1.1c3,0.3,5.8-1.9,6.1-4.9l0.1-1.2   c0.3-3-1.9-5.8-4.9-6.1L24.5,78V55.9l12.7,2.2L50,60.4h0l0,0l12.7-2.2l12.7-2.2V78l-4.3,0.8c-3,0.3-5.2,3.1-4.9,6.1l0.1,1.2   c0.3,3,3.1,5.2,6.1,4.9l6.5-1.1C83.1,89.7,86.3,86.3,86.3,82.2z"/><path d="M65.9,79.5c0.8-1,1.9-1.8,3-2.2L64,78.2v2.4l1.4-0.3C65.5,80.1,65.7,79.8,65.9,79.5z"/><path d="M64.4,86.5L64,86.6V89l1.1-0.2C64.7,88.1,64.5,87.3,64.4,86.5z"/><path d="M66.1,90.4L64,90.8v2.4l4.6-0.8C67.6,91.9,66.8,91.2,66.1,90.4z"/><path d="M64.5,82.3L64,82.4v2.4l0.3-0.1C64.2,83.9,64.3,83.1,64.5,82.3z"/></g></svg>
