<svg xmlns="http://www.w3.org/2000/svg" data-name="Layer 1" viewBox="0 0 100 125" x="0px" y="0px"><title>81 all</title><path d="M85.41,74.26h0V17.5a12,12,0,0,0-12-12H26.58a12,12,0,0,0-12,12v65a12,12,0,0,0,12,12H64a2,2,0,0,0,.39,0l.16,0,.2-.06.17-.09.16-.09L65.2,94l.11-.09L84.79,75.71A2,2,0,0,0,85.41,74.26ZM18.58,82.5v-65a8,8,0,0,1,8-8H73.42a8,8,0,0,1,8,8V72.26H68a6,6,0,0,0-6,6V90.5H26.58A8,8,0,0,1,18.58,82.5ZM66,87.89V78.26a2,2,0,0,1,2-2H78.36Z"/><path d="M31.5,33.33h1a6.33,6.33,0,0,0,0-12.67h-1a6.33,6.33,0,0,0,0,12.67Zm0-8.67h1a2.33,2.33,0,0,1,0,4.67h-1a2.33,2.33,0,0,1,0-4.67Z"/><path d="M50.5,33.33h18a6.33,6.33,0,0,0,0-12.67h-18a6.33,6.33,0,0,0,0,12.67Zm0-8.67h18a2.33,2.33,0,0,1,0,4.67h-18a2.33,2.33,0,0,1,0-4.67Z"/><path d="M31.5,55.33h1a6.33,6.33,0,0,0,0-12.67h-1a6.33,6.33,0,0,0,0,12.67Zm0-8.67h1a2.33,2.33,0,0,1,0,4.67h-1a2.33,2.33,0,0,1,0-4.67Z"/><path d="M50.5,55.33h18a6.33,6.33,0,0,0,0-12.67h-18a6.33,6.33,0,0,0,0,12.67Zm0-8.67h18a2.33,2.33,0,0,1,0,4.67h-18a2.33,2.33,0,0,1,0-4.67Z"/><path d="M27.17,70.33h9.67a2,2,0,1,0,0-4H27.17a2,2,0,0,0,0,4Z"/><path d="M50.83,77.33H27.17a2,2,0,0,0,0,4H50.83a2,2,0,1,0,0-4Z"/></svg>
