<svg xmlns="http://www.w3.org/2000/svg" viewBox="0 0 48 60" x="0px" y="0px"><g><path d="M6,36v9a1,1,0,0,0,2,0V25a1,1,0,0,0-2,0v9a2,2,0,0,1-2-2V25a3,3,0,0,1,3-3H25.829A3.006,3.006,0,0,1,23,24H17a1,1,0,0,0-1,1V45a1,1,0,0,0,2,0V26h5a5.006,5.006,0,0,0,5-5,1,1,0,0,0-1-1H7a5.006,5.006,0,0,0-5,5v7A4,4,0,0,0,6,36Z"/><path d="M16,15V14a4,4,0,0,0-8,0v1a4,4,0,0,0,8,0Zm-6,0V14a2,2,0,0,1,4,0v1a2,2,0,0,1-4,0Z"/><path d="M11,33V45a1,1,0,0,0,2,0V33a1,1,0,0,0-2,0Z"/><path d="M43,2H17a3,3,0,0,0-3,3V7a1,1,0,0,0,2,0V5a1,1,0,0,1,1-1H43a1,1,0,0,1,1,1V27a1,1,0,0,1-1,1H21a1,1,0,0,0,0,2H43a3,3,0,0,0,3-3V5A3,3,0,0,0,43,2Z"/></g></svg>
