<svg xmlns="http://www.w3.org/2000/svg" xmlns:xlink="http://www.w3.org/1999/xlink" version="1.1" x="0px" y="0px" viewBox="0 0 32 40" style="enable-background:new 0 0 32 32;" xml:space="preserve"><path d="M30.015,2.99328H2.00052C1.4475,2.99328,1,3.44077,1,3.99379s0.4475,1.00052,1.00052,1.00052h2.70385L1.77872,16.0938  c-0.0667,0.16467-0.01822,1.46281-0.03325,1.662c0.00003,2.34691,1.9102,4.2561,4.25712,4.2561s4.25708-1.90919,4.25708-4.25611  c-0.00924-0.19568,0.01955-1.51037-0.03326-1.66199C10.22645,16.0938,7.3008,4.99431,7.3008,4.99431h5.65753v18.54816  c-1.3613,0.35718-2.3733,1.58682-2.3733,3.05871c0,0,0,1.40502,0,1.40502c0,0.55302,0.4475,1.00052,1.00052,1.00052h8.84442  c0.55302,0,1.00052-0.4475,1.00052-1.00052c0,0,0-1.40502,0-1.40502c0-1.47189-1.012-2.70153-2.3733-3.05871V4.99431h5.65753  L21.78907,16.0938c-0.05065,0.14818-0.02964,1.4739-0.03322,1.66199c0,2.34692,1.91017,4.25611,4.25708,4.25611  s4.25708-1.90919,4.25708-4.25611c-0.00049-0.19684,0.01339-1.50732-0.03324-1.66199c0.00002,0-2.92563-11.09949-2.92563-11.09949  H30.015C31.31857,4.98126,31.33805,3.01232,30.015,2.99328z M8.25864,17.75579c-0.18125,3.24324-4.82499,2.83279-4.51205-0.40651  c-0.00005,0.00005,4.51205,0.00005,4.51205,0.00005V17.75579z M4.04454,15.3483l1.95804-7.42865l1.95804,7.42865H4.04454z   M17.05615,23.42767h-2.09679V5.2161h2.09679V23.42767z M19.42945,26.60118c0,0,0,0.4045,0,0.4045h-6.84338  c-0.1035-0.77749,0.31245-1.57751,1.17253-1.57697c-0.00005-0.00002,4.49837-0.00002,4.49837-0.00002  C18.90379,25.4287,19.42945,25.95436,19.42945,26.60118z M28.26898,17.75579c-0.18125,3.24324-4.82499,2.83279-4.51204-0.40651  c-0.00005,0.00005,4.51204,0.00005,4.51204,0.00005V17.75579z M24.05489,15.3483l1.95804-7.42865l1.95804,7.42865H24.05489z"/></svg>
