<svg xmlns="http://www.w3.org/2000/svg" xmlns:xlink="http://www.w3.org/1999/xlink" version="1.1" x="0px" y="0px" viewBox="0 0 32 40" style="enable-background:new 0 0 32 32;" xml:space="preserve"><path d="M4.32474,19.38617h13.50772l-2.37264,11.95164c-0.05517,0.26491,0.0883,0.51871,0.33106,0.618  C15.85709,31.98895,15.93435,32,16.00056,32c0.18759,0,0.3642-0.0883,0.46348-0.25387l11.67582-18.28614  c0.11033-0.17661,0.12138-0.38629,0.02209-0.56283c-0.09935-0.17661-0.27589-0.28694-0.48557-0.28694H14.16866L16.5413,0.65851  c0.05517-0.26485-0.0883-0.51865-0.33106-0.618c-0.2538-0.09928-0.52969-0.01105-0.67316,0.20968L3.85021,18.5364  c-0.09928,0.17654-0.11033,0.38622-0.01105,0.56283C3.93852,19.27577,4.11506,19.38617,4.32474,19.38617z"/></svg>
