<svg xmlns="http://www.w3.org/2000/svg" viewBox="0 0 512 640" x="0px" y="0px"><g><path d="M411.7505,143.8218a8,8,0,0,0-6.07-13.21h-202.34a52.52,52.52,0,1,0-52.4925,53.9219,8,8,0,0,0,0-16,36.5281,36.5281,0,1,1,36.4925-37.9219h-26.742a8,8,0,0,0-6.07,13.21L275.1392,284.3383V416.5229H229.564a8,8,0,0,0,0,16H336.7148a8,8,0,0,0,0-16H291.1392V284.3383Zm-146.0093,73.98a8,8,0,0,1-.01-16h.01a8,8,0,0,1,0,16Zm-53.4663-31.2679-34.2666-39.9221H388.2705l-34.2668,39.9221Zm76.5044,40.5574a7.9956,7.9956,0,0,1,7.9946-8h.01a8,8,0,1,1-8.0049,8Z"/></g></svg>
