<svg xmlns="http://www.w3.org/2000/svg" xmlns:xlink="http://www.w3.org/1999/xlink" version="1.1" x="0px" y="0px" viewBox="0 0 32 40" style="enable-background:new 0 0 32 32;" xml:space="preserve"><g><path d="M15.94375,12.17448h0.1125c0.56354,0,1.02292,0.45885,1.02292,1.02344c0,0.58906,0.47708,1.06667,1.06667,1.06667   c0.58958,0,1.06667-0.4776,1.06667-1.06667c0-1.38522-0.90241-2.55189-2.14583-2.97585V9.48281   c0-0.58906-0.47709-1.06667-1.06667-1.06667c-0.58958,0-1.06667,0.4776-1.06667,1.06667v0.73926   c-1.24342,0.42396-2.14583,1.59062-2.14583,2.97585v0.7125c0,1.7401,1.41562,3.15625,3.2125,3.15625h0.05625   c0.56354,0,1.02292,0.45885,1.02292,1.02291v0.7125c0,0.56458-0.45938,1.02344-1.02292,1.02344h-0.1125   c-0.56354,0-1.02292-0.45885-1.02292-1.02344c0-0.58906-0.47708-1.06667-1.06667-1.06667s-1.06667,0.4776-1.06667,1.06667   c0,1.38522,0.90241,2.55182,2.14583,2.97578v0.73932c0,0.58906,0.47708,1.06667,1.06667,1.06667   c0.58958,0,1.06667-0.4776,1.06667-1.06667v-0.73932c1.24342-0.42396,2.14583-1.59056,2.14583-2.97578v-0.7125   c0-1.7401-1.41562-3.15625-3.2125-3.15625h-0.05625c-0.56354,0-1.02292-0.45885-1.02292-1.02292v-0.7125   C14.92083,12.63333,15.38021,12.17448,15.94375,12.17448z"/><path d="M28.8,4.87448H3.2c-1.76458,0-3.2,1.43542-3.2,3.2v15.85104c0,1.76458,1.43542,3.2,3.2,3.2h25.6   c1.76458,0,3.2-1.43542,3.2-3.2V12.34115V8.07448C32,6.3099,30.56458,4.87448,28.8,4.87448z M23.55189,24.99219H8.44818   c-0.47005-3.26296-3.05215-5.84473-6.31484-6.31478v-5.35482c3.2627-0.47005,5.84479-3.05182,6.31484-6.31478h15.10371   c0.47005,3.26296,3.05208,5.84473,6.31478,6.31478v5.35482C26.60397,19.14746,24.02194,21.72923,23.55189,24.99219z M28.8,7.00781   c0.58854,0,1.06667,0.47865,1.06667,1.06667v3.09271c-2.08646-0.425-3.73438-2.07292-4.15937-4.15938H28.8z M2.13333,8.07448   c0-0.58802,0.47812-1.06667,1.06667-1.06667h3.09271c-0.425,2.08646-2.07292,3.73438-4.15938,4.15938V8.07448z M3.2,24.99219   c-0.58854,0-1.06667-0.47865-1.06667-1.06667v-3.09271c2.08646,0.425,3.73437,2.07292,4.15938,4.15937H3.2z M29.86667,23.92552   c0,0.58802-0.47812,1.06667-1.06667,1.06667h-3.09271c0.425-2.08646,2.07292-3.73438,4.15937-4.15937V23.92552z"/></g></svg>
