<svg xmlns="http://www.w3.org/2000/svg" xmlns:xlink="http://www.w3.org/1999/xlink" version="1.1" x="0px" y="0px" viewBox="0 0 100 125" enable-background="new 0 0 100 100" xml:space="preserve"><path fill="#000000" d="M41.822,44.542c1.008-8.475,2.539-9.772,11.074-10.523c4.846-0.427,9.689-0.603,14.537-0.655  c-0.121-2.643-0.33-5.284-0.644-7.926c-1.008-8.475-2.539-9.772-11.074-10.523c-10.432-0.918-20.871-0.708-31.31-0.49  c-3.541,0.074-7.096,0.46-10.605,0.966c-5.192,0.75-6.691,2.189-7.411,7.402c-1.541,11.171-1.529,22.38-0.032,33.554  c0.417,3.112,1.278,5.068,2.91,6.225c0.013,0.008,0.025,0.017,0.037,0.025c0.141,0.097,0.285,0.19,0.437,0.276  c1.33,0.793,3.117,1.22,5.535,1.464c1.416,0.144,2.833,0.265,4.251,0.366c-0.759,2.685-1.517,5.369-2.279,8.052  c-0.301,1.06-0.877,2.179,0.201,3.086c1.233,1.037,2.274,0.113,3.312-0.498c0.861-0.507,1.719-1.021,2.573-1.541  c3.982-2.432,7.996-4.812,11.928-7.321c1.569-1,3.17-1.455,5.013-1.438c0.323,0.003,0.645-0.005,0.967-0.004  C40.889,58.21,41.009,51.375,41.822,44.542z"/><path fill="#000000" d="M68.917,40.887c3.653,0,7.308,0.076,10.839,0.15c2.35,0.049,4.909,0.284,8.059,0.739  c1.847,0.267,2.188,0.557,2.198,0.568c0.013,0.013,0.298,0.352,0.546,2.148c1.178,8.537,1.187,17.264,0.023,25.934  c-0.249,1.858-0.634,2.307-0.764,2.404c-0.008,0.007-0.019,0.014-0.026,0.02c-0.017,0.012-0.03,0.021-0.043,0.029L89.712,72.9  l-0.035,0.021c-0.495,0.295-1.468,0.519-2.887,0.661c-1.11,0.112-2.224,0.208-3.308,0.286l-4.638,0.331l1.267,4.474l0.508,1.794  c0.001,0.003,0.001,0.008,0.003,0.012c-0.22-0.134-0.438-0.268-0.657-0.399c-2.251-1.363-4.578-2.773-6.818-4.201  c-1.846-1.177-3.803-1.748-5.982-1.748h-0.109c-0.39,0.004-0.777,0.005-1.167,0.005c-4.179,0-8.323-0.203-12.316-0.605  c-2.173-0.221-2.847-0.58-3.056-0.774c-0.157-0.147-0.547-0.712-0.781-2.78c-0.977-8.595-1.038-16.256-0.186-23.424  c0.364-3.062,0.751-3.996,1.012-4.24c0.39-0.364,1.89-0.664,4.457-0.891C59.125,41.056,63.541,40.887,68.917,40.887 M68.917,37.102  c-4.745,0-9.489,0.127-14.231,0.544C47.83,38.25,46.6,39.292,45.791,46.1c-0.965,8.106-0.737,16.212,0.182,24.298  c0.563,4.955,2.248,6.392,7.216,6.894c4.226,0.426,8.457,0.626,12.697,0.626c0.4,0,0.801-0.001,1.201-0.005c0.024,0,0.051,0,0.075,0  c1.448,0,2.711,0.365,3.951,1.155c3.159,2.015,6.382,3.929,9.582,5.882c0.686,0.418,1.374,0.83,2.065,1.237  c0.562,0.33,1.125,0.774,1.735,0.774c0.296,0,0.603-0.103,0.926-0.375c0.866-0.729,0.401-1.628,0.16-2.479  c-0.612-2.152-1.22-4.311-1.83-6.467c1.138-0.082,2.276-0.18,3.415-0.295c1.941-0.195,3.377-0.537,4.445-1.176  c0.121-0.068,0.236-0.145,0.352-0.222c0.01-0.009,0.02-0.015,0.029-0.021c1.311-0.929,2.003-2.5,2.338-4.999  c1.202-8.977,1.212-17.979-0.025-26.955c-0.578-4.188-1.783-5.343-5.951-5.945c-2.82-0.407-5.676-0.716-8.521-0.776  C76.196,37.177,72.557,37.102,68.917,37.102L68.917,37.102z"/></svg>
