<svg xmlns="http://www.w3.org/2000/svg" xmlns:xlink="http://www.w3.org/1999/xlink" version="1.1" x="0px" y="0px" viewBox="0 0 48 60" enable-background="new 0 0 48 48" xml:space="preserve"><path d="M23.999,14.163c3.146,0,5.706-2.56,5.706-5.706s-2.56-5.707-5.706-5.707c-3.147,0-5.707,2.561-5.707,5.707  S20.852,14.163,23.999,14.163z"/><path d="M25.506,19.344l2.408,8.489h6.311l0.422-7.772c0.044-0.822-0.232-1.612-0.783-2.225c-0.55-0.613-1.305-0.976-2.127-1.021  c-0.056-0.003-0.111-0.005-0.167-0.005h-4.807L25.506,19.344z"/><path d="M13.772,27.833h6.312l2.408-8.489l-1.257-2.533h-4.807c-1.7,0-3.083,1.383-3.083,3.083c0,0.056,0.001,0.111,0.004,0.167  L13.772,27.833z"/><path d="M8.255,28.333c0.044-0.075,0.077-0.157,0.077-0.25V14.428l2.639-1.119c0.236,0.232,0.56,0.378,0.916,0.378  c0.722,0,1.311-0.587,1.311-1.31c0-0.722-0.588-1.309-1.311-1.309c-0.722,0-1.309,0.587-1.309,1.309  c0,0.004,0.002,0.008,0.002,0.012l-2.943,1.248c-0.185,0.078-0.305,0.26-0.305,0.461v13.985c0,0.093,0.032,0.175,0.077,0.25H5.7  l1.277,6.214h6.396c0.108,0,0.205,0.07,0.237,0.174l3.37,10.529h14.038l3.37-10.529c0.033-0.104,0.129-0.174,0.238-0.174h6.395  l1.278-6.214H8.255z"/></svg>
