<svg xmlns="http://www.w3.org/2000/svg" xmlns:xlink="http://www.w3.org/1999/xlink" version="1.1" x="0px" y="0px" viewBox="0 0 100 125" enable-background="new 0 0 100 100" xml:space="preserve"><g><path d="M34.664,24.796l0.262,2.293c10.108,4.403,21.624,4.403,31.752,0l0.256-2.293C56.656,20.231,44.94,20.231,34.664,24.796z"/></g><g><path d="M36.506,29.931c9.232,3.358,19.345,3.358,28.576,0c0.945,2.97,0.945,6.147,0,9.109   c-2.527,7.896-10.945,12.253-18.841,9.739C38.343,46.26,33.993,37.827,36.506,29.931z"/></g><path d="M70.043,17.061l-3.674,5.537c-9.955-4.236-21.195-4.236-31.142,0l-3.674-5.537c-0.059-0.08-0.094-0.16-0.127-0.247  c-0.282-0.712,0.047-1.521,0.764-1.804c4.651-1.89,8.915-4.639,12.55-8.111c3.391-3.237,8.713-3.237,12.118,0  c3.627,3.473,7.885,6.222,12.543,8.111c0.08,0.033,0.174,0.08,0.246,0.134C70.277,15.56,70.465,16.417,70.043,17.061z M50.557,16.88  c0.082,0.141,0.248,0.181,0.377,0.101c0.133-0.074,0.174-0.241,0.105-0.376c-0.025-0.039-0.066-0.073-0.105-0.1l0.977-1.683h1.945  c0,0.147,0.119,0.268,0.281,0.268c0.139,0,0.254-0.12,0.254-0.268s-0.115-0.275-0.254-0.275c-0.061,0-0.107,0.014-0.141,0.033  l-0.984-1.688l0.984-1.683c0.127,0.08,0.295,0.033,0.375-0.1c0.072-0.135,0.02-0.296-0.107-0.376  c-0.127-0.074-0.289-0.027-0.375,0.101c-0.021,0.04-0.033,0.086-0.033,0.135H51.91l-0.977-1.684  c0.133-0.074,0.174-0.242,0.105-0.376c-0.08-0.134-0.254-0.174-0.375-0.1c-0.141,0.08-0.187,0.24-0.107,0.368  c0.027,0.054,0.061,0.088,0.107,0.107l-0.986,1.684h-1.95c0-0.148-0.113-0.276-0.268-0.276c-0.147,0-0.269,0.128-0.269,0.276  c0,0.153,0.121,0.273,0.269,0.273c0.046,0,0.094-0.007,0.134-0.033l0.978,1.683l-0.978,1.688c-0.121-0.073-0.295-0.026-0.376,0.101  c-0.072,0.135-0.026,0.302,0.102,0.376c0.128,0.081,0.295,0.033,0.375-0.1c0.026-0.042,0.033-0.088,0.033-0.135h1.95l0.986,1.683  C50.523,16.584,50.477,16.752,50.557,16.88z"/><path d="M64.365,51.622c13.768,6.535,20.941,21.945,17.053,36.686c-19.492,8.681-41.761,8.681-61.252,0  c-3.881-14.74,3.285-30.15,17.052-36.686C45.174,57.924,56.414,57.924,64.365,51.622z M57.045,70.19  c-1.127,1.615-0.736,3.833,0.871,4.96c0.477,0.336,1.033,0.549,1.604,0.616c1.373,0.174,2.594,0.926,3.346,2.065  c0.775-1.14,1.996-1.892,3.352-2.065c1.949-0.241,3.344-2.018,3.096-3.968c-0.066-0.584-0.281-1.133-0.604-1.608  c-0.094-0.115-0.168-0.242-0.242-0.376c-0.77-1.528-0.16-3.398,1.375-4.183l-3.346-2.964c-0.188,0.771-0.844,1.341-1.629,1.408  c-1.018,0.094-1.91-0.649-2.002-1.661c-0.068,0.789-0.631,1.446-1.408,1.627c-0.986,0.229-1.986-0.381-2.207-1.374l-3.357,2.964  c0.148,0.073,0.262,0.141,0.375,0.227C57.676,66.845,58.031,68.783,57.045,70.19z"/></svg>
