<svg xmlns="http://www.w3.org/2000/svg" xmlns:xlink="http://www.w3.org/1999/xlink" version="1.1" x="0px" y="0px" viewBox="0 0 100 125" enable-background="new 0 0 100 100" xml:space="preserve"><path d="M76,37.5v3H24v-3c0-3.932,3.264-7.24,7.48-6.973c0.316,0.02,0.567-0.231,0.547-0.547C31.758,25.751,35.081,22.5,39,22.5  c1.461,0,2.824,0.454,3.95,1.223c0.246,0.168,0.598,0.075,0.724-0.195C44.788,21.147,47.196,19.5,50,19.5s5.212,1.647,6.326,4.028  c0.126,0.27,0.478,0.363,0.724,0.195C58.176,22.954,59.539,22.5,61,22.5c3.926,0,7.242,3.259,6.973,7.482  c-0.02,0.315,0.23,0.565,0.545,0.545C72.748,30.258,76,33.58,76,37.5z"/><path d="M65.5,44.5h9.936c0.3,0,0.532,0.262,0.496,0.56l-5.88,49c-0.03,0.251-0.243,0.44-0.496,0.44H65.5  c-0.276,0-0.5-0.224-0.5-0.5V45C65,44.724,65.224,44.5,65.5,44.5z"/><path d="M45,94V45c0-0.276,0.224-0.5,0.5-0.5h9c0.276,0,0.5,0.224,0.5,0.5v49c0,0.276-0.224,0.5-0.5,0.5h-9  C45.224,94.5,45,94.276,45,94z"/><path d="M35,45v49c0,0.276-0.224,0.5-0.5,0.5h-4.056c-0.253,0-0.466-0.189-0.496-0.44l-5.88-49c-0.036-0.298,0.197-0.56,0.496-0.56  H34.5C34.776,44.5,35,44.724,35,45z"/><path d="M54,9.5c0,2.209-1.791,4-4,4s-4-1.791-4-4s1.791-4,4-4S54,7.291,54,9.5z"/><path d="M33,15.5c0,2.209-1.791,4-4,4s-4-1.791-4-4s1.791-4,4-4S33,13.291,33,15.5z"/><path d="M71,11.5c2.209,0,4,1.791,4,4s-1.791,4-4,4s-4-1.791-4-4S68.791,11.5,71,11.5z"/></svg>
