<svg xmlns="http://www.w3.org/2000/svg" viewBox="0 0 300 375" x="0px" y="0px"><defs><style>.cls-1{fill:#000000;}</style></defs><title>Question white</title><g data-name="Calque 2"><g data-name="Calque 1"><rect class="cls-1" x="136.1" y="210.6" width="29.8" height="29.8" rx="6.65"/><path class="cls-1" d="M150.11,0A150,150,0,0,0,0,150.11C.06,231.65,68.35,299.94,149.89,300A150,150,0,0,0,300,149.89C299.94,68.35,231.65.06,150.11,0Zm88.58,235.72c-.49.5-1,1-1.48,1.49A123.33,123.33,0,0,1,61.31,64.28c.49-.5,1-1,1.48-1.49a123.33,123.33,0,0,1,175.9,172.93Z"/><path class="cls-1" d="M210.42,125.13c0,.37-.06.73-.11,1.08s-.1.86-.17,1.29c0,.28-.08.56-.13.83s-.12.68-.19,1-.17.86-.27,1.28c-.06.22-.11.44-.17.65s-.14.59-.23.87-.21.76-.34,1.14-.24.76-.37,1.13a.78.78,0,0,1-.05.14c-.12.35-.25.69-.38,1l-.18.45c-.09.23-.18.46-.28.68s-.24.56-.37.83c-.23.53-.48,1-.75,1.56-.14.29-.3.59-.46.88s-.33.6-.5.9-.35.61-.54.91-.36.59-.55.88-.37.57-.56.85c-.58.87-1.2,1.72-1.84,2.55-.28.37-.57.73-.86,1.09s-.7.85-1.06,1.26c-.5.58-1,1.15-1.52,1.71-5.2,5.62-11.34,10.45-16.89,15.57-.53.48-1,1-1.56,1.47q-.47.44-.93.9c-.31.3-.61.6-.91.91l-.5.51c-.2.2-.39.39-.57.59q-.93,1-1.8,2c-.29.33-.58.67-.86,1s-.56.68-.83,1-.68.87-1,1.31c-.18.24-.36.49-.52.74s-.35.5-.51.75-.33.49-.49.74-.4.63-.59,1-.36.6-.52.91-.28.5-.41.76-.27.51-.39.76l0,.06c-.18.36-.36.73-.52,1.11-.32.71-.62,1.44-.89,2.19-.16.46-.32.92-.46,1.4l0,.1c-.21.66-.39,1.32-.54,2s-.27,1.15-.37,1.75c0,.3-.1.6-.14.9,0,.15-.05.31-.07.46a5.43,5.43,0,0,1-5.4,4.68h-19a5.46,5.46,0,0,1-5.43-5.87,1.34,1.34,0,0,1,0-.2c0-.48.09-.95.14-1.41a4.26,4.26,0,0,1,.06-.5c0-.29.06-.58.1-.86,0-.43.11-.84.17-1.25,0-.15.05-.29.07-.43.08-.5.16-1,.26-1.47a1.25,1.25,0,0,1,0-.19q.13-.74.3-1.44c0-.19.08-.38.12-.56q.14-.63.3-1.23c0-.14.07-.28.11-.42.09-.37.19-.73.31-1.09a3.68,3.68,0,0,1,.16-.54c.11-.41.24-.82.38-1.21a2.53,2.53,0,0,1,.12-.36c.12-.38.26-.76.4-1.13a2.67,2.67,0,0,1,.14-.36c.13-.39.28-.77.45-1.15a2.87,2.87,0,0,1,.15-.37c.12-.3.25-.6.38-.89s.2-.46.31-.68c.3-.64.61-1.27.93-1.88.15-.29.3-.58.46-.86l.14-.25c.2-.36.4-.7.61-1s.49-.81.74-1.2c.48-.76,1-1.5,1.51-2.21.28-.39.56-.77.85-1.14.84-1.09,1.7-2.12,2.61-3.11l.52-.57q1.53-1.65,3.15-3.15l.95-.87c.64-.58,1.28-1.14,1.93-1.68l1-.82,1-.79,1-.79,1-.77,1.63-1.27,2-1.56L163,148c.6-.45,1.19-.9,1.77-1.36.85-.66,1.69-1.31,2.5-2l.39-.31.94-.77c.31-.25.61-.51.91-.77.6-.51,1.19-1,1.76-1.58s1-.93,1.45-1.4l.21-.22c.28-.28.54-.55.79-.83s.51-.56.75-.85c.41-.47.8-1,1.18-1.44.17-.21.32-.42.47-.64l.51-.71c.18-.26.35-.53.52-.8s.39-.64.57-1,.36-.65.53-1,.25-.49.36-.74c.21-.45.41-.92.6-1.4.1-.26.2-.52.29-.79.15-.43.28-.87.41-1.32s.2-.76.29-1.16.17-.78.24-1.19l.09-.6c0-.22.07-.45.09-.68,0-.4.09-.81.12-1.22A30.29,30.29,0,0,0,169,97.51a28.51,28.51,0,0,0-11.35-5.38,29.93,29.93,0,0,0-35,19.76,13.36,13.36,0,0,1-12.6,9.31H107a13.57,13.57,0,0,1-13-17.42,59.67,59.67,0,0,1,67.17-41.34c25.42,4.18,45.21,25.76,48.89,51.25A48.77,48.77,0,0,1,210.42,125.13Z"/></g></g></svg>
