<svg xmlns="http://www.w3.org/2000/svg" xmlns:xlink="http://www.w3.org/1999/xlink" version="1.1" x="0px" y="0px" viewBox="0 0 100 125" enable-background="new 0 0 100 100" xml:space="preserve"><g><g><path d="M74.653,84.504c-0.02-0.062-0.043-0.123-0.07-0.183L59,50.524V38.371c0.994-0.197,1.745-1.072,1.745-2.124v0    c0-1.196-0.97-2.167-2.167-2.167H40.911c-1.197,0-2.167,0.97-2.167,2.167v0c0,1.196,0.97,2.167,2.167,2.167H41v12.111    L25.417,84.321c-0.027,0.06-0.051,0.12-0.07,0.183c-0.558,1.795-0.241,3.783,0.846,5.317l0.217,0.306    c1.137,1.602,2.989,2.56,4.954,2.56h37.273c1.965,0,3.817-0.957,4.954-2.56l0.217-0.307    C74.895,88.287,75.211,86.299,74.653,84.504z M43.862,51.481C43.953,51.284,44,51.07,44,50.854v-12.44h12v12.44    c0,0.217,0.047,0.431,0.138,0.628l7.181,15.574c-7.902,1.316-12.927,4.667-18.818,4.798c-2.636,0.059-6.364-0.62-9.428-1.308    L43.862,51.481z"/><path d="M50.719,31.187c3.032,0,5.5-2.468,5.5-5.5c0-3.032-2.468-5.5-5.5-5.5c-3.032,0-5.5,2.468-5.5,5.5    C45.219,28.719,47.687,31.187,50.719,31.187z M50.719,22.187c1.93,0,3.5,1.57,3.5,3.5s-1.57,3.5-3.5,3.5c-1.93,0-3.5-1.57-3.5-3.5    S48.789,22.187,50.719,22.187z"/><path d="M45.867,18.241c1.959,0,3.554-1.595,3.554-3.554c0-1.96-1.595-3.554-3.554-3.554c-1.959,0-3.554,1.595-3.554,3.554    C42.312,16.646,43.907,18.241,45.867,18.241z M45.867,12.425c1.247,0,2.262,1.015,2.262,2.262s-1.015,2.262-2.262,2.262    c-1.247,0-2.262-1.015-2.262-2.262S44.62,12.425,45.867,12.425z"/><path d="M60.719,22.061c4.065,0,7.373-3.308,7.373-7.374c0-4.066-3.308-7.373-7.373-7.373c-4.065,0-7.373,3.308-7.373,7.373    C53.346,18.753,56.653,22.061,60.719,22.061z M60.719,9.313c2.963,0,5.373,2.41,5.373,5.373s-2.41,5.374-5.373,5.374    c-2.963,0-5.373-2.411-5.373-5.374S57.756,9.313,60.719,9.313z"/></g></g></svg>
