<svg xmlns="http://www.w3.org/2000/svg" xmlns:xlink="http://www.w3.org/1999/xlink" version="1.1" x="0px" y="0px" viewBox="0 0 100 125" enable-background="new 0 0 100 100" xml:space="preserve"><g><g><g><circle cx="49.826" cy="21.059" r="4.791"/></g><g><path d="M53.218,27.686h-6.784c0,0-4.873,0.054-4.873,4.547c0,3.88,0,4.217,0,4.241h16.531c0-0.022,0-0.36,0-4.241     C58.091,27.767,53.218,27.686,53.218,27.686z"/></g><g><circle cx="70.673" cy="21.059" r="4.791"/></g><g><path d="M74.065,27.686h-6.784c0,0-4.873,0.054-4.873,4.547c0,3.88,0,4.217,0,4.241h16.529c0-0.022,0-0.36,0-4.241     C78.938,27.767,74.065,27.686,74.065,27.686z"/></g><g><circle cx="29.217" cy="21.059" r="4.791"/></g><g><path d="M32.607,27.686h-6.783c0,0-4.873,0.054-4.873,4.547c0,3.88,0,4.217,0,4.241h16.529c0-0.022,0-0.36,0-4.241     C37.481,27.767,32.607,27.686,32.607,27.686z"/></g></g><g><g><circle cx="49.826" cy="68.317" r="4.791"/></g><g><path d="M53.218,74.943h-6.784c0,0-4.873,0.055-4.873,4.547c0,3.881,0,4.219,0,4.241h16.531c0-0.021,0-0.359,0-4.241     C58.091,75.024,53.218,74.943,53.218,74.943z"/></g><g><circle cx="70.673" cy="68.317" r="4.791"/></g><g><path d="M74.065,74.943h-6.784c0,0-4.873,0.055-4.873,4.547c0,3.881,0,4.219,0,4.241h16.529c0-0.021,0-0.359,0-4.241     C78.938,75.024,74.065,74.943,74.065,74.943z"/></g><g><circle cx="29.217" cy="68.317" r="4.791"/></g><g><path d="M32.607,74.943h-6.783c0,0-4.873,0.055-4.873,4.547c0,3.881,0,4.219,0,4.241h16.529c0-0.021,0-0.359,0-4.241     C37.481,75.024,32.607,74.943,32.607,74.943z"/></g></g><g><g><circle cx="39.635" cy="44.554" r="4.791"/></g><g><path d="M43.027,51.18h-6.784c0,0-4.873,0.055-4.873,4.546c0,3.881,0,4.219,0,4.241h16.53c0-0.021,0-0.359,0-4.241     C47.9,51.262,43.027,51.18,43.027,51.18z"/></g></g><g><g><circle cx="18.908" cy="44.554" r="4.791"/></g><g><path d="M22.298,51.18h-6.783c0,0-4.873,0.055-4.873,4.546c0,3.881,0,4.219,0,4.241h16.53c0-0.021,0-0.359,0-4.241     C27.172,51.262,22.298,51.18,22.298,51.18z"/></g></g><g><g><circle cx="60.364" cy="44.554" r="4.791"/></g><g><path d="M63.757,51.18h-6.784c0,0-4.872,0.055-4.872,4.546c0,3.881,0,4.219,0,4.241h16.528c0-0.021,0-0.359,0-4.241     C68.629,51.262,63.757,51.18,63.757,51.18z"/></g></g><g><g><circle cx="81.093" cy="44.554" r="4.791"/></g><g><path d="M84.485,51.18h-6.783c0,0-4.873,0.055-4.873,4.546c0,3.881,0,4.219,0,4.241h16.528c0-0.021,0-0.359,0-4.241     C89.357,51.262,84.485,51.18,84.485,51.18z"/></g></g></g></svg>
