<svg xmlns="http://www.w3.org/2000/svg" xmlns:xlink="http://www.w3.org/1999/xlink" xml:space="preserve" style="shape-rendering:geometricPrecision;text-rendering:geometricPrecision;image-rendering:optimizeQuality;" viewBox="0 0 0.288047 0.36746124999999996" x="0px" y="0px" fill-rule="evenodd" clip-rule="evenodd"><defs><style type="text/css">
   
    .fil0 {fill:black}
    .fil1 {fill:black;fill-rule:nonzero}
   
  </style></defs><g><path class="fil0" d="M0.0800315 0.000976378c-0.0151732,0.0040748 -0.0241654,0.0197087 -0.0200827,0.0349094 0.00408268,0.0152047 0.0196969,0.0242283 0.0348701,0.0201575 0.0151732,-0.0040748 0.0241654,-0.0197087 0.0200827,-0.0349134 -0.00407874,-0.0152047 -0.0196969,-0.0242283 -0.0348701,-0.0201535z"/><path class="fil1" d="M0.0988701 0.151335c-0.0208898,0.0855157 -0.0189055,0.0463819 -0.0128583,0.132618 0.00321654,0.015252 0.0278307,0.0121024 0.0275787,-0.00273622l-0.00353543 -0.0504567c-0.000299213,-0.00429134 -0.000358268,-0.0070748 0.000653543,-0.0112283l0.00531496 -0.021752 0.000405512 0.0189961c0.00030315,0.00343701 0.000901575,0.00741339 0.0052874,0.00980709l0.0614803 0.0296614c0.0161142,0.0046063 0.0260315,-0.0157953 0.0119921,-0.0250276l-0.0466496 -0.0225039c-0.00467717,-0.00236614 -0.00465748,-0.00629528 -0.00484646,-0.0107441l-0.000917323 -0.0439409 -0.0177638 -0.0671614c0.0353622,0.00372047 0.0218228,-0.00141339 0.0601024,0.0274134 0.0110118,0.00837008 0.0265433,-0.00635433 0.0156024,-0.0180787 -0.0466299,-0.0359213 -0.0325236,-0.0281457 -0.0870709,-0.0362244 -3.93701e-005,9.44882e-005 -0.0236693,0.00426378 -0.0329409,0.00881496 -0.0342756,0.0454291 -0.0161457,0.0336575 -0.0657559,0.0554567 -0.012689,0.00550394 -0.00744882,0.0262559 0.00813386,0.0224528 0.0541417,-0.0230906 0.038437,-0.00685433 0.0639764,-0.0407008l0.011811 0.0453346z"/><path class="fil0" d="M0.0284488 0.22378c-0.0157087,0 -0.0284488,0.0127677 -0.0284488,0.0285079 0,0.0157441 0.0127402,0.0285118 0.0284488,0.0285118 0.0157126,0 0.0284528,-0.0127677 0.0284528,-0.0285118 0,-0.0157402 -0.0127402,-0.0285079 -0.0284528,-0.0285079z"/><path class="fil1" d="M0.233059 0.12637c-0.00719291,0 -0.00719291,-0.0138898 0,-0.0138898l0.0495906 0c0.00719685,0 0.00719685,0.0138898 0,0.0138898l-0.0495906 0z"/><path class="fil1" d="M0.224382 0.0916929c-0.00719685,0 -0.00719685,-0.0138898 0,-0.0138898l0.0495906 0c0.00719291,0 0.00719291,0.0138898 0,0.0138898l-0.0495906 0z"/><path class="fil1" d="M0.224382 0.160177c-0.00719685,0 -0.00719685,-0.0138898 0,-0.0138898l0.0495906 0c0.00719291,0 0.00719291,0.0138898 0,0.0138898l-0.0495906 0z"/></g></svg>
