<svg xmlns="http://www.w3.org/2000/svg" xmlns:xlink="http://www.w3.org/1999/xlink" viewBox="0 0 403 398.75" version="1.1" x="0px" y="0px"><title>Robotics and Automation-29</title><desc>Created with Sketch.</desc><g stroke="none" stroke-width="1" fill="none" fill-rule="evenodd"><g fill="#000000" fill-rule="nonzero"><path d="M144.69,318.73 L89.69,318.73 C86.3762915,318.73 83.69,316.043708 83.69,312.73 L83.69,291.27 C81.6166667,290.49 79.55,289.626667 77.49,288.68 L62.28,303.88 C59.9058696,306.122635 56.1941304,306.122635 53.82,303.88 L14.87,265 C12.5436584,262.659775 12.5436584,258.880225 14.87,256.54 L30.07,241.34 C29.1233333,239.273333 28.2566667,237.206667 27.47,235.14 L6,235.14 C2.6862915,235.14 0,232.453708 0,229.14 L0,174.14 C0,170.826292 2.6862915,168.14 6,168.14 L27.48,168.14 C28.26,166.07 29.13,164 30.07,161.94 L14.87,146.74 C12.5436584,144.399775 12.5436584,140.620225 14.87,138.28 L53.79,99.35 C56.1641304,97.1073655 59.8758696,97.1073655 62.25,99.35 L77.45,114.55 C79.51,113.6 81.59,112.73 83.65,111.95 L83.65,90.42 C83.65,87.1062915 86.3362915,84.42 89.65,84.42 L144.65,84.42 C147.963708,84.42 150.65,87.1062915 150.65,90.42 L150.65,111.89 C152.716667,112.67 154.786667,113.536667 156.86,114.49 L172.06,99.29 C174.43413,97.0473655 178.14587,97.0473655 180.52,99.29 L219.44,138.22 C221.766342,140.560225 221.766342,144.339775 219.44,146.68 L204.24,161.88 C205.186667,163.94 206.053333,166.006667 206.84,168.08 L228.31,168.08 C231.623708,168.08 234.31,170.766292 234.31,174.08 L234.31,229.08 C234.31,232.393708 231.623708,235.08 228.31,235.08 L206.85,235.08 C206.07,237.15 205.2,239.22 204.26,241.28 L219.46,256.48 C221.786342,258.820225 221.786342,262.599775 219.46,264.94 L180.54,303.87 C178.16587,306.112635 174.45413,306.112635 172.08,303.87 L156.87,288.67 C154.81,289.616667 152.743333,290.48 150.67,291.26 L150.67,312.74 C150.664515,316.04201 147.991997,318.718998 144.69,318.73 Z M95.62,306.73 L138.7,306.73 L138.7,287 C138.701912,284.404557 140.372416,282.104587 142.84,281.3 C147.144104,279.900634 151.327784,278.154926 155.35,276.08 C157.671705,274.880032 160.503076,275.320917 162.35,277.17 L176.35,291.17 L206.81,260.7 L192.81,246.7 C190.960917,244.853076 190.520032,242.021705 191.72,239.7 C193.796105,235.681788 195.541863,231.501332 196.94,227.2 C197.739942,224.731959 200.035568,223.057644 202.63,223.05 L222.37,223.05 L222.37,180 L202.61,180 C200.011881,179.996678 197.711085,178.321538 196.91,175.85 C195.513488,171.548066 193.767676,167.36748 191.69,163.35 C190.490032,161.028295 190.930917,158.196924 192.78,156.35 L206.78,142.35 L176.31,112 L162.31,126 C160.463076,127.849083 157.631705,128.289968 155.31,127.09 C151.292313,125.012769 147.111764,123.266972 142.81,121.87 C140.338462,121.068915 138.663322,118.768119 138.66,116.17 L138.66,96.4 L95.62,96.4 L95.62,116.14 C95.6166779,118.738119 93.9415375,121.038915 91.47,121.84 C87.1681591,123.236763 82.987593,124.982567 78.97,127.06 C76.6482953,128.259968 73.816924,127.819083 71.97,125.97 L57.97,111.97 L27.51,142.44 L41.51,156.44 C43.3590828,158.286924 43.7999678,161.118295 42.6,163.44 C40.5238954,167.458212 38.778137,171.638668 37.38,175.94 C36.5800581,178.408041 34.2844315,180.082356 31.69,180.09 L12,180.09 L12,223.17 L31.74,223.17 C34.3344315,223.177644 36.6300581,224.851959 37.43,227.32 C38.831653,231.623256 40.5772856,235.806755 42.65,239.83 C43.8499678,242.151705 43.4090828,244.983076 41.56,246.83 L27.56,260.83 L58,291.19 L72,277.19 C73.846924,275.340917 76.6782953,274.900032 79,276.1 C83.0184194,278.178409 87.1987906,279.927476 91.5,281.33 C93.9640878,282.13344 95.633769,284.428243 95.64,287.02 L95.62,306.73 Z"/><path d="M117.16,253.59 C88.441193,253.59 65.16,230.308807 65.16,201.59 C65.16,172.871193 88.441193,149.59 117.16,149.59 C145.878807,149.59 169.16,172.871193 169.16,201.59 C169.121439,230.292819 145.862819,253.551439 117.16,253.59 Z M117.16,161.53 C95.06861,161.53 77.16,179.43861 77.16,201.53 C77.16,223.62139 95.06861,241.53 117.16,241.53 C139.25139,241.53 157.16,223.62139 157.16,201.53 C157.105012,179.463048 139.226965,161.589471 117.16,161.54 L117.16,161.53 Z"/><path d="M325,188.16 L324.62,188.16 L281.7,185.5 C278.407708,185.285754 275.906079,182.453551 276.1,179.16 L277.1,163.31 C276.04,162.816667 274.986667,162.296667 273.94,161.75 L262,172.27 C260.796638,173.295687 259.249712,173.828001 257.67,173.76 C256.089781,173.661716 254.612461,172.942825 253.56,171.76 L225.09,139.53 C222.907874,137.050366 223.140305,133.273369 225.61,131.08 L237.52,120.56 C237.11,119.46 236.72,118.34 236.36,117.23 L220.51,116.23 C217.217708,116.015754 214.716079,113.183551 214.91,109.89 L217.61,67 C217.824246,63.7077085 220.656449,61.2060785 223.95,61.4 L239.8,62.4 C240.29,61.34 240.8,60.29 241.36,59.24 L230.84,47.32 C228.657874,44.8403655 228.890305,41.0633686 231.36,38.87 L263.59,10.41 C266.070889,8.23710696 269.840428,8.47381971 272.03,10.94 L282.55,22.85 C283.656667,22.4366667 284.766667,22.05 285.88,21.69 L286.88,5.84 C286.975696,4.25624622 287.694809,2.77487301 288.88,1.72 C290.079239,0.688081786 291.630029,0.158019495 293.21,0.24 L336.13,2.9 C339.422292,3.11424632 341.923921,5.94644881 341.73,9.24 L340.73,25.09 C341.79,25.5833333 342.846667,26.1033333 343.9,26.65 L355.81,16.14 C358.288225,13.9645862 362.057566,14.1968205 364.25,16.66 L392.72,48.89 C394.895414,51.3682245 394.66318,55.1375656 392.2,57.33 L380.29,67.86 C380.7,68.97 381.09,70.09 381.45,71.19 L397.3,72.19 C400.592292,72.4042463 403.093921,75.2364488 402.9,78.53 L400.24,121.45 C400.025754,124.742292 397.193551,127.243921 393.9,127.05 L378,126 C377.506667,127.06 376.986667,128.113333 376.44,129.16 L387,141.07 C389.175414,143.548225 388.94318,147.317566 386.48,149.51 L354.26,178 C351.781775,180.175414 348.012434,179.94318 345.82,177.48 L335.3,165.57 C334.193333,165.983333 333.083333,166.37 331.97,166.73 L330.97,182.57 C330.754868,185.711078 328.148425,188.151616 325,188.16 Z M288.42,173.92 L319.42,175.84 L320.29,161.76 C320.455726,159.166445 322.272319,156.974422 324.79,156.33 C328.140936,155.466678 331.415282,154.32952 334.58,152.93 C336.963392,151.890082 339.745372,152.503813 341.47,154.45 L350.83,165.06 L374.1,144.51 L364.74,133.91 C363.032692,131.963482 362.766603,129.141327 364.08,126.91 C365.857646,123.9385 367.392626,120.828408 368.67,117.61 C369.621588,115.194665 372.018587,113.665267 374.61,113.82 L388.69,114.7 L390.61,83.7 L376.53,82.83 C373.93927,82.6655892 371.7481,80.8537379 371.1,78.34 C370.234215,74.9833164 369.097141,71.7025236 367.7,68.53 C366.664981,66.1493247 367.278347,63.3730384 369.22,61.65 L379.82,52.28 L359.26,29 L348.66,38.36 C346.713482,40.0673085 343.891327,40.3333973 341.66,39.02 C338.69091,37.2407598 335.580409,35.7089217 332.36,34.44 C329.944665,33.4884115 328.415267,31.0914133 328.57,28.5 L329.44,14.42 L298.44,12.49 L297.57,26.57 C297.405589,29.1607299 295.593738,31.3518997 293.08,32 C289.727225,32.8679773 286.44993,34.004998 283.28,35.4 C280.899325,36.4350189 278.123038,35.8216533 276.4,33.88 L267,23.3 L243.73,43.85 L253.09,54.45 C254.797308,56.396518 255.063397,59.2186726 253.75,61.45 C251.970079,64.4202601 250.435006,67.5305399 249.16,70.75 C248.1836,73.1447718 245.803219,74.6635669 243.22,74.54 L229.13,73.67 L227.21,104.67 L241.29,105.55 C243.87695,105.718582 246.063057,107.529583 246.71,110.04 C247.576891,113.393104 248.713941,116.670485 250.11,119.84 C251.149918,122.223392 250.536187,125.005372 248.59,126.73 L238,136.08 L258.55,159.35 L269.15,149.99 C271.096518,148.282692 273.918673,148.016603 276.15,149.33 C279.126236,151.105326 282.239459,152.640203 285.46,153.92 C287.867727,154.873754 289.391807,157.264705 289.24,159.85 L288.42,173.92 Z"/><path d="M309,136.12 C308.12,136.12 307.23,136.12 306.34,136.04 C283.518993,134.626699 266.051796,115.167043 267.102254,92.3264578 C268.152712,69.4858725 287.332328,51.7116348 310.186722,52.3989851 C333.041117,53.0863353 351.117906,71.9810663 350.793838,94.8434979 C350.469769,117.705929 331.864694,136.080705 309,136.12 Z M308.92,64.2 C292.963506,64.5429805 280.068955,77.319164 279.578841,93.271817 C279.088728,109.22447 291.174655,122.768128 307.08,124.09 C323.603468,125.092833 337.816474,112.522199 338.84,96 C339.854692,79.4799529 327.298525,65.2591769 310.78,64.22 C310.15,64.22 309.52,64.2 308.91,64.2 L308.92,64.2 Z"/></g></g></svg>
