<svg xmlns="http://www.w3.org/2000/svg" data-name="Layer 1" viewBox="0 0 48 60" x="0px" y="0px"><title>movie solid icons</title><g data-name="Group"><path data-name="Path" d="M10.58,23.55a4.28,4.28,0,0,0-2.83-2.78,4.28,4.28,0,0,0-3.95.32,4.28,4.28,0,0,0,2.83,2.78A4.28,4.28,0,0,0,10.58,23.55Z"/><path data-name="Path" d="M16.29,20.77a4.28,4.28,0,0,0-2.83,2.78,4.29,4.29,0,0,0,3.95.32,4.32,4.32,0,0,0,2.84-2.78A4.31,4.31,0,0,0,16.29,20.77Z"/><path data-name="Path" d="M12,31.27a7.31,7.31,0,0,1-6.21-3.44,6.27,6.27,0,0,0,12.42,0A7.3,7.3,0,0,1,12,31.27Z"/><path data-name="Compound Path" d="M47.58,16.51a1.15,1.15,0,0,0-1.18-.19c-.06,0-6.18,2.41-10.48.85s-7.44-7.33-7.47-7.39a1.17,1.17,0,0,0-2.06,0c-.72,1.33-1.35,2.63-1.91,3.91A36.88,36.88,0,0,1,24,26.41,22.09,22.09,0,0,1,22.43,31c.1.33.21.66.34,1A13.41,13.41,0,0,0,27.9,38.6a1.39,1.39,0,0,0,.39.15A13.57,13.57,0,0,0,36.49,37,18.86,18.86,0,0,0,43,30.7a37.91,37.91,0,0,0,5-13.06A1.18,1.18,0,0,0,47.58,16.51ZM29.15,20a4.3,4.3,0,0,1,3.61,1.65,4.29,4.29,0,0,1-3.61,1.64,4.27,4.27,0,0,1-3.61-1.65A4.28,4.28,0,0,1,29.15,20ZM35,34.53a6,6,0,0,0-9.58-3.48A5.15,5.15,0,0,1,35,34.53Zm6-7.25a4.3,4.3,0,0,1-3.83-1.06,4.29,4.29,0,0,1-1.71-3.58,4.29,4.29,0,0,1,3.82,1.06A4.3,4.3,0,0,1,41,27.28Z"/><path data-name="Compound Path" d="M23.51,12.25a1.16,1.16,0,0,0-.76-.93,1.18,1.18,0,0,0-1.18.22c-.05.05-5,4.38-9.55,4.38s-9.5-4.33-9.55-4.38a1.18,1.18,0,0,0-1.94.71,37.74,37.74,0,0,0,.23,14,18.92,18.92,0,0,0,4,8.11,13.45,13.45,0,0,0,7.09,4.47,1.11,1.11,0,0,0,.42,0,13.45,13.45,0,0,0,7.09-4.47,18.81,18.81,0,0,0,4-8.11A37.74,37.74,0,0,0,23.51,12.25ZM21,25.57a16.57,16.57,0,0,1-3.38,7.12,12.27,12.27,0,0,1-3.93,3.11,8.87,8.87,0,0,1-1.7.66,11.41,11.41,0,0,1-5.53-3.65A16.48,16.48,0,0,1,3,25.69,33.16,33.16,0,0,1,2.59,14.6c2.06,1.48,5.74,3.66,9.43,3.66s7.37-2.18,9.43-3.66A33,33,0,0,1,21,25.57Z"/></g></svg>
